<svg width="20" height="20" viewBox="0 0 20 20" fill="none" xmlns="http://www.w3.org/2000/svg">
<path d="M16.6667 3.33356H3.33341C2.41675 3.33356 1.67508 4.08356 1.67508 5.00022L1.66675 15.0002C1.66675 15.9169 2.41675 16.6669 3.33341 16.6669H16.6667C17.5834 16.6669 18.3334 15.9169 18.3334 15.0002V5.00022C18.3334 4.08356 17.5834 3.33356 16.6667 3.33356ZM16.3334 6.87522L10.4417 10.5586C10.1751 10.7252 9.82508 10.7252 9.55842 10.5586L3.66675 6.87522C3.45841 6.74189 3.33341 6.51689 3.33341 6.27522C3.33341 5.71689 3.94175 5.38356 4.41675 5.67522L10.0001 9.16689L15.5834 5.67522C16.0584 5.38356 16.6667 5.71689 16.6667 6.27522C16.6667 6.51689 16.5417 6.74189 16.3334 6.87522Z" fill="#A9ACAC"/>
</svg>
