<svg width="36" height="36" viewBox="0 0 36 36" fill="none" xmlns="http://www.w3.org/2000/svg">
<rect y="0.000244141" width="36" height="36" rx="8" fill="#EFF1F1"/>
<path fill-rule="evenodd" clip-rule="evenodd" d="M9 18.0002C9 14.4051 9 12.6075 9.85669 11.3128C10.2392 10.7346 10.7344 10.2395 11.3126 9.85694C12.6073 9.00024 14.4049 9.00024 18 9.00024C21.5951 9.00024 23.3927 9.00024 24.6874 9.85694C25.2656 10.2395 25.7608 10.7346 26.1433 11.3128C27 12.6075 27 14.4051 27 18.0002C27 21.5954 27 23.393 26.1433 24.6877C25.7608 25.2659 25.2656 25.761 24.6874 26.1436C23.3927 27.0002 21.5951 27.0002 18 27.0002C14.4049 27.0002 12.6073 27.0002 11.3126 26.1436C10.7344 25.761 10.2392 25.2659 9.85669 24.6877C9 23.393 9 21.5954 9 18.0002ZM22.6587 17.9995C22.6587 20.5728 20.5726 22.6589 17.9993 22.6589C15.4259 22.6589 13.3398 20.5728 13.3398 17.9995C13.3398 15.4262 15.4259 13.3401 17.9993 13.3401C20.5726 13.3401 22.6587 15.4262 22.6587 17.9995ZM17.9993 21.0825C19.702 21.0825 21.0823 19.7022 21.0823 17.9995C21.0823 16.2968 19.702 14.9165 17.9993 14.9165C16.2966 14.9165 14.9162 16.2968 14.9162 17.9995C14.9162 19.7022 16.2966 21.0825 17.9993 21.0825ZM22.8409 14.2016C23.4456 14.2016 23.9357 13.7114 23.9357 13.1068C23.9357 12.5021 23.4456 12.012 22.8409 12.012C22.2363 12.012 21.7461 12.5021 21.7461 13.1068C21.7461 13.7114 22.2363 14.2016 22.8409 14.2016Z" fill="#A9ACAC"/>
</svg>
