<svg width="36" height="36" viewBox="0 0 36 36" fill="none" xmlns="http://www.w3.org/2000/svg">
<rect y="0.000244141" width="36" height="36" rx="8" fill="#EFF1F1"/>
<path d="M9 11.4193C9 10.8421 9.20271 10.3659 9.60811 9.99075C10.0135 9.61556 10.5405 9.42798 11.1892 9.42798C11.8263 9.42798 12.3417 9.61267 12.7355 9.98209C13.1409 10.363 13.3436 10.8594 13.3436 11.4713C13.3436 12.0254 13.1467 12.4871 12.7529 12.8565C12.3475 13.2375 11.8147 13.428 11.1544 13.428H11.1371C10.5 13.428 9.98456 13.2375 9.59073 12.8565C9.19691 12.4756 9 11.9965 9 11.4193ZM9.22587 26.5708V15.0037H13.083V26.5708H9.22587ZM15.2201 26.5708H19.0772V20.112C19.0772 19.7079 19.1236 19.3962 19.2162 19.1769C19.3784 18.7844 19.6245 18.4525 19.9546 18.1812C20.2847 17.9099 20.6988 17.7743 21.1969 17.7743C22.4942 17.7743 23.1429 18.6459 23.1429 20.389V26.5708H27V19.9388C27 18.2303 26.5946 16.9345 25.7838 16.0514C24.973 15.1682 23.9015 14.7267 22.5695 14.7267C21.0753 14.7267 19.9112 15.3674 19.0772 16.6488V16.6834H19.0598L19.0772 16.6488V15.0037H15.2201C15.2432 15.3731 15.2548 16.5218 15.2548 18.4496C15.2548 20.3775 15.2432 23.0845 15.2201 26.5708Z" fill="#A9ACAC"/>
</svg>
