<svg width="12" height="17" viewBox="0 0 12 17" fill="none" xmlns="http://www.w3.org/2000/svg">
<path d="M6.00008 0.666931C2.77508 0.666931 0.166748 3.27526 0.166748 6.50026C0.166748 9.97526 3.85008 14.7669 5.36675 16.5919C5.70008 16.9919 6.30841 16.9919 6.64175 16.5919C8.15008 14.7669 11.8334 9.97526 11.8334 6.50026C11.8334 3.27526 9.22508 0.666931 6.00008 0.666931ZM6.00008 8.5836C4.85008 8.5836 3.91675 7.65026 3.91675 6.50026C3.91675 5.35026 4.85008 4.41693 6.00008 4.41693C7.15008 4.41693 8.08341 5.35026 8.08341 6.50026C8.08341 7.65026 7.15008 8.5836 6.00008 8.5836Z" fill="#A9ACAC"/>
</svg>
