<svg width="20" height="20" viewBox="0 0 20 20" fill="none" xmlns="http://www.w3.org/2000/svg">
<path d="M16.025 12.7169L13.9084 12.4753C13.4 12.4169 12.9 12.5919 12.5417 12.9503L11.0084 14.4836C8.65003 13.2836 6.7167 11.3586 5.5167 8.99194L7.05837 7.45027C7.4167 7.09194 7.5917 6.59194 7.53337 6.08361L7.2917 3.98361C7.1917 3.14194 6.48337 2.50861 5.63337 2.50861H4.1917C3.25003 2.50861 2.4667 3.29194 2.52503 4.23361C2.9667 11.3503 8.65837 17.0336 15.7667 17.4753C16.7084 17.5336 17.4917 16.7503 17.4917 15.8086V14.3669C17.5 13.5253 16.8667 12.8169 16.025 12.7169Z" fill="#A9ACAC"/>
</svg>
