<svg width="36" height="36" viewBox="0 0 36 36" fill="none" xmlns="http://www.w3.org/2000/svg">
<rect y="0.000244141" width="36" height="36" rx="8" fill="#EFF1F1"/>
<path d="M21.0271 10.7008V10.6975H21.8711L22.1794 10.7591C22.385 10.7991 22.5717 10.8515 22.7394 10.9163C22.9071 10.9812 23.0694 11.0568 23.2263 11.1432C23.3832 11.2297 23.5255 11.3178 23.6532 11.4074C23.7798 11.496 23.8934 11.5901 23.9941 11.6895C24.0936 11.79 24.2489 11.8159 24.4599 11.7673C24.6709 11.7186 24.8981 11.6511 25.1416 11.5647C25.385 11.4782 25.6258 11.381 25.8638 11.2729C26.1019 11.1648 26.2469 11.0962 26.2988 11.0671C26.3497 11.0368 26.3768 11.0206 26.38 11.0184L26.3832 11.0136L26.3995 11.0055L26.4157 10.9974L26.4319 10.9893L26.4482 10.9812L26.4514 10.9763L26.4563 10.9731L26.4612 10.9698L26.4644 10.9649L26.4806 10.9601L26.4968 10.9568L26.4936 10.9812L26.4887 11.0055L26.4806 11.0298L26.4725 11.0541L26.4644 11.0703L26.4563 11.0865L26.4482 11.1108C26.4427 11.127 26.4373 11.1486 26.4319 11.1757C26.4265 11.2027 26.3751 11.3107 26.2777 11.4998C26.1803 11.6889 26.0586 11.8807 25.9125 12.0752C25.7665 12.2697 25.6355 12.4167 25.5198 12.5161C25.4029 12.6166 25.3255 12.6868 25.2876 12.7268C25.2498 12.7679 25.2038 12.8057 25.1497 12.8403L25.0685 12.8937L25.0523 12.9019L25.0361 12.91L25.0328 12.9148L25.028 12.9181L25.0231 12.9213L25.0198 12.9262L25.0036 12.9343L24.9874 12.9424L24.9841 12.9472L24.9793 12.9505L24.9744 12.9537L24.9711 12.9586L24.9679 12.9634L24.963 12.9667L24.9582 12.9699L24.9549 12.9748H25.0361L25.4905 12.8775C25.7935 12.8127 26.083 12.7344 26.3589 12.6425L26.7971 12.4966L26.8458 12.4804L26.8702 12.4723L26.8864 12.4642L26.9026 12.4561L26.9188 12.448L26.9351 12.4399L26.9675 12.4351L27 12.4318V12.4642L26.9919 12.4675L26.9838 12.4723L26.9805 12.4772L26.9757 12.4804L26.9708 12.4837L26.9675 12.4885L26.9643 12.4934L26.9594 12.4966L26.9546 12.4999L26.9513 12.5047L26.9481 12.5096L26.9432 12.5129L26.9351 12.5291L26.927 12.5453L26.9221 12.5485C26.9199 12.5518 26.8512 12.6436 26.716 12.8241C26.5807 13.0056 26.5077 13.0974 26.4968 13.0996C26.486 13.1028 26.4709 13.119 26.4514 13.1482C26.433 13.1785 26.3183 13.299 26.1073 13.5097C25.8963 13.7204 25.6897 13.9078 25.4873 14.0721C25.2839 14.2374 25.1811 14.4406 25.1789 14.6815C25.1757 14.9214 25.1632 15.1927 25.1416 15.4952C25.1199 15.7978 25.0794 16.1246 25.0198 16.4758C24.9603 16.827 24.8684 17.2241 24.7439 17.6671C24.6195 18.1101 24.468 18.5424 24.2894 18.9638C24.1109 19.3852 23.9243 19.7634 23.7295 20.0984C23.5347 20.4334 23.3562 20.717 23.1939 20.9493C23.0316 21.1816 22.8666 21.4005 22.6988 21.6058C22.5311 21.8111 22.319 22.0423 22.0626 22.2995C21.8051 22.5556 21.6644 22.6961 21.6406 22.7209C21.6157 22.7447 21.5097 22.8333 21.3225 22.9867C21.1363 23.1412 20.9362 23.2958 20.7219 23.4503C20.5088 23.6037 20.3129 23.7318 20.1344 23.8344C19.9558 23.9371 19.7405 24.0543 19.4884 24.1861C19.2373 24.3191 18.9657 24.4422 18.6736 24.5557C18.3814 24.6692 18.073 24.7745 17.7484 24.8718C17.4238 24.969 17.11 25.0447 16.807 25.0987C16.5041 25.1527 16.1605 25.1986 15.7764 25.2365L15.2002 25.2932V25.3013H14.1452V25.2932L14.0072 25.2851C13.9152 25.2797 13.8395 25.2743 13.78 25.2689C13.7205 25.2635 13.4959 25.2337 13.1064 25.1797C12.7169 25.1257 12.4112 25.0717 12.1894 25.0176C11.9675 24.9636 11.6375 24.861 11.1993 24.7097C10.761 24.5584 10.3861 24.4055 10.0745 24.251C9.76394 24.0975 9.56917 24.0003 9.49017 23.9592C9.41226 23.9192 9.32462 23.8695 9.22723 23.8101L9.08115 23.721L9.07792 23.7161L9.07304 23.7129L9.06817 23.7096L9.06492 23.7048L9.04869 23.6967L9.03246 23.6885L9.02923 23.6837L9.02435 23.6804L9.01948 23.6772L9.01623 23.6723L9.013 23.6675L9.00812 23.6642H9V23.6318L9.01623 23.6351L9.03246 23.6399L9.1055 23.648C9.15419 23.6534 9.28675 23.6615 9.50316 23.6723C9.71958 23.6832 9.9495 23.6832 10.193 23.6723C10.4364 23.6615 10.6853 23.6372 10.9396 23.5994C11.1939 23.5616 11.4941 23.4968 11.8404 23.4049C12.1867 23.313 12.5048 23.2039 12.7948 23.0775C13.0837 22.95 13.2893 22.8549 13.4116 22.7922C13.5327 22.7306 13.7178 22.6161 13.9666 22.4486L14.3399 22.1974L14.3432 22.1925L14.3481 22.1893L14.3529 22.186L14.3562 22.1812L14.3594 22.1763L14.3643 22.1731L14.3692 22.1698L14.3724 22.165L14.3886 22.1601L14.4049 22.1569L14.4081 22.1406L14.413 22.1244L14.4179 22.1212L14.4211 22.1163L14.2913 22.1082C14.2047 22.1028 14.1208 22.0974 14.0397 22.092C13.9585 22.0866 13.8314 22.0623 13.6583 22.0191C13.4851 21.9759 13.2985 21.911 13.0983 21.8246C12.8981 21.7381 12.7033 21.6355 12.514 21.5166C12.3246 21.3978 12.1877 21.2989 12.1033 21.22C12.02 21.1422 11.9118 21.032 11.7787 20.8894C11.6467 20.7457 11.532 20.5981 11.4346 20.4469C11.3372 20.2956 11.2442 20.1211 11.1555 19.9233L11.0207 19.6283L11.0126 19.604L11.0045 19.5797L10.9996 19.5635L10.9964 19.5473L11.0207 19.5505L11.0451 19.5554L11.2236 19.5797C11.3427 19.5959 11.5293 19.6013 11.7836 19.5959C12.0379 19.5905 12.2137 19.5797 12.3111 19.5635C12.4085 19.5473 12.468 19.5365 12.4896 19.5311L12.5221 19.523L12.5627 19.5149L12.6032 19.5068L12.6065 19.5019L12.6114 19.4987L12.6162 19.4954L12.6195 19.4906L12.587 19.4825L12.5546 19.4744L12.5221 19.4663L12.4896 19.4582L12.4572 19.4501C12.4355 19.4447 12.3977 19.4338 12.3436 19.4176C12.2895 19.4014 12.1434 19.342 11.9053 19.2393C11.6673 19.1367 11.4779 19.0367 11.3372 18.9395C11.1962 18.842 11.0618 18.7353 10.9347 18.6202C10.8081 18.5035 10.6691 18.3533 10.5176 18.1696C10.3661 17.9859 10.2308 17.7725 10.1118 17.5294C9.99279 17.2862 9.90352 17.0539 9.844 16.8324C9.78472 16.6122 9.74561 16.387 9.72716 16.1597L9.69793 15.8194L9.71416 15.8226L9.73039 15.8275L9.74662 15.8356L9.76285 15.8437L9.77908 15.8518L9.79531 15.8599L10.0469 15.9733C10.2146 16.049 10.4229 16.1138 10.6718 16.1678C10.9207 16.2219 11.0694 16.2516 11.1181 16.257L11.1912 16.2651H11.3372L11.334 16.2602L11.3291 16.257L11.3243 16.2538L11.321 16.2489L11.3178 16.244L11.3129 16.2408L11.308 16.2375L11.3048 16.2327L11.2885 16.2246L11.2723 16.2165L11.2691 16.2116L11.2642 16.2084L11.2593 16.2051L11.2561 16.2003L11.2399 16.1922L11.2236 16.1841L11.2204 16.1792C11.2171 16.177 11.1706 16.1424 11.0808 16.0755C10.9921 16.0074 10.899 15.9193 10.8016 15.8113C10.7042 15.7032 10.6069 15.5897 10.5095 15.4709C10.4119 15.3518 10.325 15.2243 10.2498 15.09C10.174 14.9549 10.094 14.7831 10.0096 14.5746C9.92625 14.3671 9.86294 14.158 9.81966 13.9473C9.77639 13.7366 9.75204 13.5286 9.74662 13.3233C9.74121 13.118 9.74662 12.9424 9.76285 12.7965C9.77908 12.6506 9.81154 12.4858 9.86023 12.3021C9.90893 12.1185 9.97927 11.924 10.0712 11.7186L10.2092 11.4107L10.2173 11.3864L10.2254 11.3621L10.2303 11.3588L10.2335 11.354L10.2368 11.3491L10.2417 11.3458L10.2465 11.3491L10.2498 11.354L10.253 11.3588L10.2579 11.3621L10.2628 11.3653L10.266 11.3702L10.2693 11.375L10.2741 11.3783L10.2822 11.3945L10.2904 11.4107L10.2952 11.4139L10.2985 11.4188L10.5176 11.6619C10.6637 11.824 10.8368 12.005 11.037 12.2049C11.2372 12.4048 11.3481 12.5085 11.3697 12.5161C11.3914 12.5247 11.4184 12.5496 11.4509 12.5907C11.4833 12.6306 11.5915 12.7263 11.7755 12.8775C11.9594 13.0288 12.2002 13.2044 12.4977 13.4043C12.7953 13.6042 13.1253 13.8014 13.4878 13.9959C13.8503 14.1904 14.2399 14.366 14.6564 14.5227C15.073 14.6794 15.3652 14.782 15.5329 14.8307C15.7006 14.8793 15.9874 14.9414 16.3931 15.0171C16.7989 15.0927 17.1046 15.1413 17.3102 15.1629C17.5158 15.1845 17.6565 15.197 17.7322 15.2002L17.8458 15.2034L17.8426 15.1791L17.8377 15.1548L17.8052 14.9522C17.7836 14.8172 17.7728 14.628 17.7728 14.3849C17.7728 14.1418 17.7917 13.9176 17.8296 13.7123C17.8675 13.507 17.9243 13.299 18 13.0882C18.0757 12.8775 18.1499 12.7084 18.2224 12.5809C18.296 12.4545 18.3923 12.3102 18.5113 12.1482C18.6303 11.9861 18.7845 11.8186 18.9739 11.6457C19.1632 11.4728 19.3796 11.3188 19.6231 11.1838C19.8665 11.0487 20.0911 10.946 20.2967 10.8758C20.5023 10.8056 20.6754 10.7596 20.8161 10.738C20.9567 10.7164 21.0271 10.704 21.0271 10.7008Z" fill="#A9ACAC"/>
</svg>
