<svg width="36" height="36" viewBox="0 0 36 36" fill="none" xmlns="http://www.w3.org/2000/svg">
<rect y="0.000244141" width="36" height="36" rx="8" fill="#EFF1F1"/>
<path d="M18.4402 24.9804L14.378 24.9045C13.0628 24.878 11.7443 24.9308 10.4548 24.6568C8.49323 24.2473 8.35427 22.2394 8.20886 20.5551C8.0085 18.1873 8.08606 15.7764 8.46417 13.4284C8.67763 12.1109 9.51766 11.3247 10.8167 11.2391C15.2021 10.9287 19.6166 10.9655 23.9922 11.1103C24.4544 11.1236 24.9197 11.1962 25.3753 11.2788C27.6246 11.6817 27.6795 13.9571 27.8253 15.8725C27.9707 17.8078 27.9093 19.7529 27.6314 21.675C27.4084 23.2664 26.9818 24.6009 25.1814 24.7297C22.9257 24.8982 20.7217 25.0338 18.4596 24.9907C18.4597 24.9804 18.4467 24.9804 18.4402 24.9804ZM16.052 20.9514C17.7519 19.954 19.4194 18.9732 21.1096 17.9825C19.4065 16.9851 17.7422 16.0043 16.052 15.0136V20.9514Z" fill="#A9ACAC"/>
</svg>
